<?xml version="1.0" encoding="UTF-8" standalone="yes"?><svg xmlns="http://www.w3.org/2000/svg" xmlns:xlink="http://www.w3.org/1999/xlink" height="1343px" style="width:1950px;height:1343px;" version="1.1" viewBox="0 0 1950 1343" width="1950px"><defs><filter height="300%" id="f1" width="300%" x="-1" y="-1"><feGaussianBlur result="blurOut" stdDeviation="2.0"/><feColorMatrix in="blurOut" result="blurOut2" type="matrix" values="0 0 0 0 0 0 0 0 0 0 0 0 0 0 0 0 0 0 .4 0"/><feOffset dx="4.0" dy="4.0" in="blurOut2" result="blurOut3"/><feBlend in="SourceGraphic" in2="blurOut3" mode="normal"/></filter></defs><g><ellipse cx="79.5" cy="1015.6179" fill="#FEFECE" filter="url(#f1)" rx="8" ry="8" style="stroke: #A80036; stroke-width: 2.0;"/><path d="M79.5,1023.6179 L79.5,1050.6179 M66.5,1031.6179 L92.5,1031.6179 M79.5,1050.6179 L66.5,1065.6179 M79.5,1050.6179 L92.5,1065.6179 " fill="#FEFECE" filter="url(#f1)" style="stroke: #A80036; stroke-width: 2.0;"/><text fill="#000000" font-family="sans-serif" font-size="14" lengthAdjust="spacingAndGlyphs" textLength="32" x="63.5" y="1085.613">User</text><text fill="#000000" font-family="sans-serif" font-size="14" font-style="italic" lengthAdjust="spacingAndGlyphs" textLength="76" x="41.5" y="1002.3161">«Scientist»</text><ellipse cx="79.5" cy="386.6179" fill="#FEFECE" filter="url(#f1)" rx="8" ry="8" style="stroke: #A80036; stroke-width: 2.0;"/><path d="M79.5,394.6179 L79.5,421.6179 M66.5,402.6179 L92.5,402.6179 M79.5,421.6179 L66.5,436.6179 M79.5,421.6179 L92.5,436.6179 " fill="#FEFECE" filter="url(#f1)" style="stroke: #A80036; stroke-width: 2.0;"/><text fill="#000000" font-family="sans-serif" font-size="14" lengthAdjust="spacingAndGlyphs" textLength="43" x="58" y="456.613">Admin</text><text fill="#000000" font-family="sans-serif" font-size="14" font-style="italic" lengthAdjust="spacingAndGlyphs" textLength="147" x="6" y="373.3161">«HW/SW Developer»</text><ellipse cx="1904" cy="633.821" fill="#FEFECE" filter="url(#f1)" rx="8" ry="8" style="stroke: #A80036; stroke-width: 2.0;"/><path d="M1904,641.821 L1904,668.821 M1891,649.821 L1917,649.821 M1904,668.821 L1891,683.821 M1904,668.821 L1917,683.821 " fill="#FEFECE" filter="url(#f1)" style="stroke: #A80036; stroke-width: 2.0;"/><text fill="#000000" font-family="sans-serif" font-size="14" lengthAdjust="spacingAndGlyphs" textLength="90" x="1859" y="703.8161">Sensor Node</text><ellipse cx="1462.5" cy="568.821" fill="#FEFECE" filter="url(#f1)" rx="8" ry="8" style="stroke: #A80036; stroke-width: 2.0;"/><path d="M1462.5,576.821 L1462.5,603.821 M1449.5,584.821 L1475.5,584.821 M1462.5,603.821 L1449.5,618.821 M1462.5,603.821 L1475.5,618.821 " fill="#FEFECE" filter="url(#f1)" style="stroke: #A80036; stroke-width: 2.0;"/><text fill="#000000" font-family="sans-serif" font-size="14" lengthAdjust="spacingAndGlyphs" textLength="44" x="1440.5" y="638.8161">Server</text><ellipse cx="1462.3591" cy="1110.4928" fill="#FEFECE" filter="url(#f1)" rx="96.3591" ry="21.6718" style="stroke: #A80036; stroke-width: 1.5;"/><text fill="#000000" font-family="sans-serif" font-size="14" lengthAdjust="spacingAndGlyphs" textLength="168" x="1378.3591" y="1115.1413">Configure measurement</text><ellipse cx="641.8592" cy="536.1928" fill="#FEFECE" filter="url(#f1)" rx="84.8592" ry="19.3718" style="stroke: #A80036; stroke-width: 1.5;"/><text fill="#000000" font-family="sans-serif" font-size="14" lengthAdjust="spacingAndGlyphs" textLength="142" x="570.8592" y="540.8413">Define default config</text><ellipse cx="1062.4264" cy="1039.3446" fill="#FEFECE" filter="url(#f1)" rx="45.4264" ry="14.5236" style="stroke: #A80036; stroke-width: 1.5;"/><text fill="#000000" font-family="sans-serif" font-size="14" lengthAdjust="spacingAndGlyphs" textLength="60" x="1032.4264" y="1043.9931">Measure</text><ellipse cx="307.2121" cy="614.3818" fill="#FEFECE" filter="url(#f1)" rx="61.2121" ry="24.5608" style="stroke: #A80036; stroke-width: 1.5;"/><text fill="#000000" font-family="sans-serif" font-size="14" lengthAdjust="spacingAndGlyphs" textLength="60" x="277.2121" y="608.7016">Add new</text><text fill="#000000" font-family="sans-serif" font-size="14" lengthAdjust="spacingAndGlyphs" textLength="88" x="263.2121" y="624.9985">sensor node</text><ellipse cx="306.8027" cy="699.2818" fill="#FEFECE" filter="url(#f1)" rx="78.8027" ry="25.4608" style="stroke: #A80036; stroke-width: 1.5;"/><text fill="#000000" font-family="sans-serif" font-size="14" lengthAdjust="spacingAndGlyphs" textLength="98" x="257.8027" y="694.9414">Delete sensor</text><text fill="#000000" font-family="sans-serif" font-size="14" lengthAdjust="spacingAndGlyphs" textLength="110" x="251.8027" y="711.2383">node or module</text><ellipse cx="307.0173" cy="458.5118" fill="#FEFECE" filter="url(#f1)" rx="87.5173" ry="24.6908" style="stroke: #A80036; stroke-width: 1.5;"/><text fill="#000000" font-family="sans-serif" font-size="14" lengthAdjust="spacingAndGlyphs" textLength="91" x="261.5173" y="453.0294">Register new</text><text fill="#000000" font-family="sans-serif" font-size="14" lengthAdjust="spacingAndGlyphs" textLength="127" x="243.5173" y="469.3263">expansion module</text><ellipse cx="642.1597" cy="328.1895" fill="#FEFECE" filter="url(#f1)" rx="62.6597" ry="24.3685" style="stroke: #A80036; stroke-width: 1.5;"/><text fill="#000000" font-family="sans-serif" font-size="14" lengthAdjust="spacingAndGlyphs" textLength="57" x="613.6597" y="322.2138">Develop</text><text fill="#000000" font-family="sans-serif" font-size="14" lengthAdjust="spacingAndGlyphs" textLength="91" x="596.6597" y="338.5106">new firmware</text><ellipse cx="1260.5253" cy="79.3251" fill="#FEFECE" filter="url(#f1)" rx="75.5253" ry="17.5051" style="stroke: #A80036; stroke-width: 1.5;"/><text fill="#000000" font-family="sans-serif" font-size="14" lengthAdjust="spacingAndGlyphs" textLength="120" x="1200.5253" y="83.9735">Rollback firmware</text><ellipse cx="1062.6291" cy="1276.4534" fill="#FEFECE" filter="url(#f1)" rx="85.6291" ry="25.6319" style="stroke: #A80036; stroke-width: 1.5;"/><text fill="#000000" font-family="sans-serif" font-size="14" lengthAdjust="spacingAndGlyphs" textLength="119" x="1003.1291" y="1273.5463">Attach expansion</text><text fill="#000000" font-family="sans-serif" font-size="14" lengthAdjust="spacingAndGlyphs" textLength="110" x="1007.6291" y="1289.8432">module to node</text><ellipse cx="1062.4525" cy="1189.2784" fill="#FEFECE" filter="url(#f1)" rx="92.4525" ry="25.9574" style="stroke: #A80036; stroke-width: 1.5;"/><text fill="#000000" font-family="sans-serif" font-size="14" lengthAdjust="spacingAndGlyphs" textLength="125" x="999.9525" y="1185.6511">Detach expansion</text><text fill="#000000" font-family="sans-serif" font-size="14" lengthAdjust="spacingAndGlyphs" textLength="127" x="998.9525" y="1201.948">module from node</text><ellipse cx="1462.5758" cy="220.2478" fill="#FEFECE" filter="url(#f1)" rx="80.5758" ry="24.4278" style="stroke: #A80036; stroke-width: 1.5;"/><text fill="#000000" font-family="sans-serif" font-size="14" lengthAdjust="spacingAndGlyphs" textLength="118" x="1403.5758" y="219.132">Set WiFi &amp; Server</text><text fill="#000000" font-family="sans-serif" font-size="14" lengthAdjust="spacingAndGlyphs" textLength="76" x="1424.5758" y="235.4289">credentials</text><ellipse cx="1062.6456" cy="220.3491" fill="#FEFECE" filter="url(#f1)" rx="70.6456" ry="16.5291" style="stroke: #A80036; stroke-width: 1.5;"/><text fill="#000000" font-family="sans-serif" font-size="14" lengthAdjust="spacingAndGlyphs" textLength="108" x="1008.6456" y="224.9976">Connect to WiFi</text><ellipse cx="307.2229" cy="965.3656" fill="#FEFECE" filter="url(#f1)" rx="93.2229" ry="21.0446" style="stroke: #A80036; stroke-width: 1.5;"/><text fill="#000000" font-family="sans-serif" font-size="14" lengthAdjust="spacingAndGlyphs" textLength="161" x="226.7229" y="970.014">Browse measurements</text><ellipse cx="307.1728" cy="854.1556" fill="#FEFECE" filter="url(#f1)" rx="89.6728" ry="20.3346" style="stroke: #A80036; stroke-width: 1.5;"/><text fill="#000000" font-family="sans-serif" font-size="14" lengthAdjust="spacingAndGlyphs" textLength="153" x="230.6728" y="858.804">Export measurements</text><ellipse cx="848.3135" cy="601.1795" fill="#FEFECE" filter="url(#f1)" rx="91.3135" ry="23.8585" style="stroke: #A80036; stroke-width: 1.5;"/><text fill="#000000" font-family="sans-serif" font-size="14" lengthAdjust="spacingAndGlyphs" textLength="138" x="779.3135" y="600.9576">Calculate aggregate</text><text fill="#000000" font-family="sans-serif" font-size="14" lengthAdjust="spacingAndGlyphs" textLength="61" x="817.8135" y="617.2545">statistics</text><ellipse cx="307.1307" cy="779.3471" fill="#FEFECE" filter="url(#f1)" rx="83.1307" ry="19.0261" style="stroke: #A80036; stroke-width: 1.5;"/><text fill="#000000" font-family="sans-serif" font-size="14" lengthAdjust="spacingAndGlyphs" textLength="138" x="238.1307" y="783.9956">Store measurement</text><ellipse cx="642.2005" cy="761.2611" fill="#FEFECE" filter="url(#f1)" rx="82.7005" ry="18.9401" style="stroke: #A80036; stroke-width: 1.5;"/><text fill="#000000" font-family="sans-serif" font-size="14" lengthAdjust="spacingAndGlyphs" textLength="137" x="573.7005" y="765.9095">Send measurement</text><ellipse cx="1709.1122" cy="1104.2434" fill="#FEFECE" filter="url(#f1)" rx="75.1122" ry="17.4224" style="stroke: #A80036; stroke-width: 1.5;"/><text fill="#000000" font-family="sans-serif" font-size="14" lengthAdjust="spacingAndGlyphs" textLength="119" x="1649.6122" y="1108.8919">Get configuration</text><ellipse cx="307.2344" cy="231.5141" fill="#FEFECE" filter="url(#f1)" rx="64.2344" ry="24.6941" style="stroke: #A80036; stroke-width: 1.5;"/><text fill="#000000" font-family="sans-serif" font-size="14" lengthAdjust="spacingAndGlyphs" textLength="66" x="274.2344" y="226.0367">Mark new</text><text fill="#000000" font-family="sans-serif" font-size="14" lengthAdjust="spacingAndGlyphs" textLength="92" x="261.2344" y="242.3336">firmware valid</text><ellipse cx="1062.3284" cy="452.3918" fill="#FEFECE" filter="url(#f1)" rx="61.8284" ry="24.0708" style="stroke: #A80036; stroke-width: 1.5;"/><text fill="#000000" font-family="sans-serif" font-size="14" lengthAdjust="spacingAndGlyphs" textLength="48" x="1038.3284" y="445.9511">Upload</text><text fill="#000000" font-family="sans-serif" font-size="14" lengthAdjust="spacingAndGlyphs" textLength="91" x="1016.8284" y="462.248">new firmware</text><ellipse cx="641.9395" cy="210.4079" fill="#FEFECE" filter="url(#f1)" rx="75.9395" ry="17.5879" style="stroke: #A80036; stroke-width: 1.5;"/><text fill="#000000" font-family="sans-serif" font-size="14" lengthAdjust="spacingAndGlyphs" textLength="121" x="581.4395" y="215.0563">Upgrade firmware</text><ellipse cx="1709.1914" cy="1235.1175" fill="#FEFECE" filter="url(#f1)" rx="89.1914" ry="25.296" style="stroke: #A80036; stroke-width: 1.5;"/><text fill="#000000" font-family="sans-serif" font-size="14" lengthAdjust="spacingAndGlyphs" textLength="126" x="1646.1914" y="1232.6985">Detect connected</text><text fill="#000000" font-family="sans-serif" font-size="14" lengthAdjust="spacingAndGlyphs" textLength="108" x="1655.1914" y="1248.9953">addon modules</text><ellipse cx="1062.6336" cy="297.2056" fill="#FEFECE" filter="url(#f1)" rx="91.6336" ry="24.8856" style="stroke: #A80036; stroke-width: 1.5;"/><text fill="#000000" font-family="sans-serif" font-size="14" lengthAdjust="spacingAndGlyphs" textLength="132" x="996.6336" y="295.3945">Check current time</text><text fill="#000000" font-family="sans-serif" font-size="14" lengthAdjust="spacingAndGlyphs" textLength="101" x="1012.1336" y="311.6914">&amp; Synchronize</text><path d="M79.5,460.357 C79.5,634.936 79.5,809.515 79.5,984.094 " fill="none" style="stroke: #A80036; stroke-width: 1.0; stroke-dasharray: 7.0,7.0;"/><polygon fill="#A80036" points="79.5,989.259,83.5,980.259,79.5,984.259,75.5,980.259,79.5,989.259" style="stroke: #A80036; stroke-width: 1.0;"/><path d="M117.675,1058.723 C161.479,1079.744 237.046,1110.321 306,1110.321 C306,1110.321 306,1110.321 1063.5,1110.321 C1166.8,1110.321 1285.18,1110.321 1365.8,1110.321 " fill="none" style="stroke: #A80036; stroke-width: 1.0;"/><path d="M117.758,1039.321 C270.789,1039.321 850.734,1039.321 1016.81,1039.321 " fill="none" style="stroke: #A80036; stroke-width: 1.0;"/><path d="M105.8442,1089.621 C128.47,1128.715 165.514,1180.496 214,1206.321 C470.375,1342.8764 833.272,1310.8788 987.52,1288.7526 " fill="none" style="stroke: #A80036; stroke-width: 1.0;"/><path d="M117.648,1086.762 C135.261,1105.655 157.936,1125.456 183,1136.321 C456.018,1254.6745 822.057,1223.6279 981.583,1201.997 " fill="none" style="stroke: #A80036; stroke-width: 1.0;"/><path d="M117.737,1027.102 C154.765,1014.951 211.902,996.201 253.521,982.543 " fill="none" style="stroke: #A80036; stroke-width: 1.0;"/><path d="M117.677,1007.667 C144.334,985.084 181.184,954.098 214,927.321 C236.433,909.017 262.286,888.559 280.862,873.968 " fill="none" style="stroke: #A80036; stroke-width: 1.0;"/><path d="M153.091,425.773 C179.871,431.474 210.128,437.914 236.618,443.553 " fill="none" style="stroke: #A80036; stroke-width: 1.0;"/><path d="M104.5306,460.354 C122.347,493.025 149.335,534.608 183,562.321 C204.3,579.856 232.376,592.325 256.325,600.649 " fill="none" style="stroke: #A80036; stroke-width: 1.0;"/><path d="M96.9879,460.638 C117.045,515.049 155.632,601.354 214,656.321 C224.781,666.475 238.393,674.595 251.816,680.922 " fill="none" style="stroke: #A80036; stroke-width: 1.0;"/><path d="M153.002,365.702 C162.81,361.172 172.959,357.191 183,354.321 C321.028,314.874 491.742,318.087 580.685,323.442 " fill="none" style="stroke: #A80036; stroke-width: 1.0;"/><path d="M153.277,406.333 C163.261,405.914 173.382,405.556 183,405.321 C279.54,402.968 303.565,411.242 400,416.321 C621.382,427.982 884.4,442.492 1000.854,448.95 " fill="none" style="stroke: #A80036; stroke-width: 1.0;"/><path d="M112.216,360.088 C130.42,334.435 155.169,304.3 183,283.32 C204.662,267 232.215,254.73 255.75,246.22 " fill="none" style="stroke: #A80036; stroke-width: 1.0;"/><path d="M140.761,460.453 C162.543,475.899 188.163,491.221 214,500.321 C329.079,540.853 471.954,544.228 559.783,541.419 " fill="none" style="stroke: #A80036; stroke-width: 1.0;"/><path d="M88.0186,360.148 C100.8183,295.46 133.762,186.29 214,144.32 C631.938,-74.3 1239.57,133.15 1413.42,200.72 " fill="none" style="stroke: #A80036; stroke-width: 1.0;"/><path d="M94.6955,360.176 C112.746,306.97 149.584,225.67 214,189.32 C340.375,118.02 522.756,167.87 601.902,195.41 " fill="none" style="stroke: #A80036; stroke-width: 1.0;"/><path d="M1737.03,1210.936 C1756.03,1192.675 1781,1166.292 1798,1139.321 C1886.53,998.847 1900.99,793.879 1902.95,706.863 " fill="none" style="stroke: #A80036; stroke-width: 1.0;"/><path d="M1766.22,1092.978 C1788.9,1085.623 1813.35,1073.655 1829,1054.321 C1871.98,1001.222 1892.83,796.104 1900,707.017 " fill="none" style="stroke: #A80036; stroke-width: 1.0;"/><path d="M1114.41,317.91 C1169.3,340.226 1259.13,377.107 1336,410.321 C1531.93,494.983 1763.49,601.006 1858.72,644.872 " fill="none" style="stroke: #A80036; stroke-width: 1.0;"/><path d="M1108.1,1039.086 C1263.41,1037.858 1774.13,1030.257 1829,983.321 C1870.62,947.72 1891.57,784.657 1899.34,706.857 " fill="none" style="stroke: #A80036; stroke-width: 1.0;"/><path d="M686.282,777.493 C745.003,799.987 852.611,843.186 940,889.321 C953.957,896.69 954.842,903.925 970,908.321 C1309.6,1006.816 1724.05,777.286 1858.57,694.03 " fill="none" style="stroke: #A80036; stroke-width: 1.0;"/><path d="M662.27,193.1 C719,144.25 892.078,8.32 1061.5,8.32 C1061.5,8.32 1061.5,8.32 1710,8.32 C1838.84,8.32 1887.86,479.303 1899.87,623.725 " fill="none" style="stroke: #A80036; stroke-width: 1.0;"/><path d="M1335.34,81.93 C1457.89,90.5 1702.29,126.34 1829,274.32 C1873.71,326.537 1893.63,533.841 1900.28,623.567 " fill="none" style="stroke: #A80036; stroke-width: 1.0;"/><path d="M1107.85,233.02 C1227.63,268.78 1564.37,378.973 1798,550.321 C1826.12,570.947 1852.56,599.987 1871.88,623.724 " fill="none" style="stroke: #A80036; stroke-width: 1.0;"/><path d="M940.132,601.173 C1085.37,600.936 1361.91,600.484 1440.31,600.356 " fill="none" style="stroke: #A80036; stroke-width: 1.0;"/><path d="M354.802,763.766 C377.334,756.728 404.859,748.782 430,743.321 C485.71,731.222 500.542,733.224 557,725.321 C910.235,675.881 1341.25,616.788 1440.46,603.202 " fill="none" style="stroke: #A80036; stroke-width: 1.0;"/><path d="M1091,473.669 C1114.72,491.15 1150.51,515.357 1185,530.321 C1275.63,569.639 1392.92,590.188 1440.28,597.343 " fill="none" style="stroke: #A80036; stroke-width: 1.0;"/><path d="M680.706,225.48 C741.506,249.89 865.011,299.31 970,340.321 C1052.03,372.368 1091.7,350.093 1155,411.321 C1179.62,435.138 1159.48,459.468 1185,482.321 C1237.17,529.038 1271.73,499.521 1336,527.321 C1374.4,543.932 1415.77,569.695 1440.11,585.757 " fill="none" style="stroke: #A80036; stroke-width: 1.0;"/><path d="M1110.53,318.604 C1125.75,326.852 1142.03,337.243 1155,349.321 C1172.59,365.702 1167.33,378.021 1185,394.321 C1241.44,446.4 1274.38,432.492 1336,478.321 C1376.23,508.242 1416.74,550.274 1440.45,576.376 " fill="none" style="stroke: #A80036; stroke-width: 1.0;"/><path d="M386.395,976.375 C572.535,998.116 1047.1,1026.529 1336,802.321 C1390.14,760.302 1426.84,687.841 1445.95,642.086 " fill="none" style="stroke: #A80036; stroke-width: 1.0;"/><path d="M387.102,863.601 C540.105,878.619 885.265,898.123 1155,807.321 C1275.8,766.657 1393.54,664.6 1440.34,620.805 " fill="none" style="stroke: #A80036; stroke-width: 1.0;"/><path d="M1102.75,1046.324 C1167.26,1057.832 1296.96,1080.969 1381.46,1096.043 " fill="none" style="stroke: #A80036; stroke-width: 1.0; stroke-dasharray: 7.0,7.0;"/><polygon fill="#A80036" points="1386.45,1096.934,1378.3008,1091.4031,1381.5291,1096.0484,1376.8838,1099.2766,1386.45,1096.934" style="stroke: #A80036; stroke-width: 1.0;"/><path d="M1501.97,1129.99 C1544.62,1151.793 1613.47,1186.993 1659.71,1210.632 " fill="none" style="stroke: #A80036; stroke-width: 1.0; stroke-dasharray: 7.0,7.0;"/><polygon fill="#A80036" points="1664.39,1213.0258,1658.1915,1205.3721,1659.9363,1210.7532,1654.5553,1212.498,1664.39,1213.0258" style="stroke: #A80036; stroke-width: 1.0;"/><path d="M665.344,779.821 C716.832,821.907 848.724,926.632 970,997.321 C988.634,1008.183 1010.56,1018.332 1028.28,1025.932 " fill="none" style="stroke: #A80036; stroke-width: 1.0; stroke-dasharray: 7.0,7.0;"/><polygon fill="#A80036" points="1033.16,1028.006,1026.4436,1020.8025,1028.5589,1026.049,1023.3124,1028.1643,1033.16,1028.006" style="stroke: #A80036; stroke-width: 1.0;"/><path d="M665.797,555.048 C688.565,573.578 724.725,602.535 757,626.321 C1007.96,811.277 1321.48,1018.625 1425.86,1087.05 " fill="none" style="stroke: #A80036; stroke-width: 1.0; stroke-dasharray: 7.0,7.0;"/><polygon fill="#A80036" points="1430.08,1089.815,1424.7472,1081.5348,1425.8988,1087.0732,1420.3604,1088.2248,1430.08,1089.815" style="stroke: #A80036; stroke-width: 1.0;"/><text fill="#000000" font-family="sans-serif" font-size="13" lengthAdjust="spacingAndGlyphs" textLength="95" x="1015" y="781.3879">&lt;&lt;extends&gt;&gt;</text><path d="M719.055,544.693 C822.322,552.878 1010.56,556.354 1155,494.321 C1284.05,438.897 1395.8,306.79 1440.6,248.63 " fill="none" style="stroke: #A80036; stroke-width: 1.0; stroke-dasharray: 7.0,7.0;"/><polygon fill="#A80036" points="1443.71,244.57,1435.0611,249.2813,1440.669,248.539,1441.4114,254.1469,1443.71,244.57" style="stroke: #A80036; stroke-width: 1.0;"/><path d="M653.019,742.406 C697.371,659.272 877.896,327.286 970,255.32 C981.459,246.37 995.47,239.49 1009.05,234.3 " fill="none" style="stroke: #A80036; stroke-width: 1.0; stroke-dasharray: 7.0,7.0;"/><polygon fill="#A80036" points="1014.03,232.47,1004.2018,231.8321,1009.339,234.2005,1006.9706,239.3377,1014.03,232.47" style="stroke: #A80036; stroke-width: 1.0;"/><path d="M388.186,774.987 C438.98,772.241 504.588,768.695 556.239,765.903 " fill="none" style="stroke: #A80036; stroke-width: 1.0; stroke-dasharray: 7.0,7.0;"/><polygon fill="#A80036" points="561.51,765.618,552.3071,762.1098,556.5173,765.888,552.7391,770.0981,561.51,765.618" style="stroke: #A80036; stroke-width: 1.0;"/><path d="M1137.23,1263.9302 C1193.59,1252.6756 1272.18,1233.0612 1336,1202.321 C1372.81,1184.59 1409.93,1155.696 1434.15,1135.02 " fill="none" style="stroke: #A80036; stroke-width: 1.0; stroke-dasharray: 7.0,7.0;"/><polygon fill="#A80036" points="1438.22,1131.518,1428.7872,1134.3504,1434.428,1134.7769,1434.0014,1140.4177,1438.22,1131.518" style="stroke: #A80036; stroke-width: 1.0;"/><text fill="#000000" font-family="sans-serif" font-size="13" lengthAdjust="spacingAndGlyphs" textLength="95" x="1213" y="1198.3879">&lt;&lt;extends&gt;&gt;</text><path d="M1151.74,1182.148 C1205.48,1176.674 1275.26,1167.59 1336,1153.321 C1360.6,1147.544 1387.16,1138.822 1409.48,1130.74 " fill="none" style="stroke: #A80036; stroke-width: 1.0; stroke-dasharray: 7.0,7.0;"/><polygon fill="#A80036" points="1414.18,1129.027,1404.3541,1128.355,1409.483,1130.7412,1407.0968,1135.8702,1414.18,1129.027" style="stroke: #A80036; stroke-width: 1.0;"/><text fill="#000000" font-family="sans-serif" font-size="13" lengthAdjust="spacingAndGlyphs" textLength="95" x="1213" y="1149.3879">&lt;&lt;extends&gt;&gt;</text><path d="M1135.69,1289.5434 C1238.15,1305.8056 1430.99,1327.1391 1590,1291.3215 C1616.54,1285.3437 1644.12,1272.6706 1665.93,1260.8901 " fill="none" style="stroke: #A80036; stroke-width: 1.0; stroke-dasharray: 7.0,7.0;"/><polygon fill="#A80036" points="1670.5,1258.3926,1660.6846,1259.2033,1666.1136,1260.7925,1664.5244,1266.2215,1670.5,1258.3926" style="stroke: #A80036; stroke-width: 1.0;"/><path d="M1109.06,1211.941 C1136.8,1225.2469 1169.76,1240.087 1185,1243.3215 C1337.44,1275.6708 1520.51,1261.0563 1624.65,1247.9044 " fill="none" style="stroke: #A80036; stroke-width: 1.0; stroke-dasharray: 7.0,7.0;"/><polygon fill="#A80036" points="1629.86,1247.2398,1620.4285,1244.4031,1624.8997,1247.8684,1621.4343,1252.3396,1629.86,1247.2398" style="stroke: #A80036; stroke-width: 1.0;"/><path d="M358.938,438.436 C422.33,413.688 529.822,371.724 592.202,347.372 " fill="none" style="stroke: #A80036; stroke-width: 1.0; stroke-dasharray: 7.0,7.0;"/><polygon fill="#A80036" points="596.984,345.505,587.1456,345.0517,592.3263,347.3232,590.0547,352.504,596.984,345.505" style="stroke: #A80036; stroke-width: 1.0;"/><path d="M374.587,473.918 C433.36,487.685 518.489,507.625 576.597,521.236 " fill="none" style="stroke: #A80036; stroke-width: 1.0; stroke-dasharray: 7.0,7.0;"/><polygon fill="#A80036" points="581.783,522.451,573.932,516.5045,576.9147,521.3111,572.1081,524.2938,581.783,522.451" style="stroke: #A80036; stroke-width: 1.0;"/><path d="M360.031,602.134 C418.478,588.444 513.399,566.21 576.509,551.428 " fill="none" style="stroke: #A80036; stroke-width: 1.0; stroke-dasharray: 7.0,7.0;"/><polygon fill="#A80036" points="581.754,550.199,572.0791,548.3562,576.8857,551.3389,573.903,556.1455,581.754,550.199" style="stroke: #A80036; stroke-width: 1.0;"/><path d="M689.306,348.305 C709.81,356.708 734.366,366.172 757,373.321 C836.766,398.518 859.122,395.961 940,417.321 C964.089,423.684 990.701,431.284 1012.86,437.775 " fill="none" style="stroke: #A80036; stroke-width: 1.0; stroke-dasharray: 7.0,7.0;"/><polygon fill="#A80036" points="684.455,346.306,691.2512,353.4342,689.0776,348.2116,694.3002,346.038,684.455,346.306" style="stroke: #A80036; stroke-width: 1.0;"/><path d="M360.904,244.65 C405.413,256.08 470.632,273.35 527,290.32 C547.626,296.53 570.158,303.91 589.704,310.51 " fill="none" style="stroke: #A80036; stroke-width: 1.0; stroke-dasharray: 7.0,7.0;"/><polygon fill="#A80036" points="594.606,312.172,587.3646,305.4965,589.8702,310.5682,584.7985,313.0737,594.606,312.172" style="stroke: #A80036; stroke-width: 1.0;"/><path d="M664.427,227.08 C682.3,241.65 707.847,263.89 727,286.32 C742.848,304.89 737.056,318.25 757,332.321 C825.352,380.546 865.244,338.784 940,376.321 C955.511,384.11 955.691,391.498 970,401.321 C985.623,412.047 1003.688,422.491 1019.62,431.106 " fill="none" style="stroke: #A80036; stroke-width: 1.0; stroke-dasharray: 7.0,7.0;"/><polygon fill="#A80036" points="1024.05,433.485,1018.0014,425.7124,1019.6413,431.1263,1014.2274,432.7662,1024.05,433.485" style="stroke: #A80036; stroke-width: 1.0;"/><path d="M717.819,212.11 C793.816,213.93 910.839,216.72 986.795,218.54 " fill="none" style="stroke: #A80036; stroke-width: 1.0; stroke-dasharray: 7.0,7.0;"/><polygon fill="#A80036" points="992.192,218.67,983.2906,214.4552,987.1934,218.55,983.0986,222.4529,992.192,218.67" style="stroke: #A80036; stroke-width: 1.0;"/><path d="M1133.28,220.32 C1201.1,220.32 1304.19,220.32 1376.7,220.32 " fill="none" style="stroke: #A80036; stroke-width: 1.0; stroke-dasharray: 7.0,7.0;"/><polygon fill="#A80036" points="1381.87,220.32,1372.87,216.32,1376.87,220.32,1372.87,224.32,1381.87,220.32" style="stroke: #A80036; stroke-width: 1.0;"/><path d="M703.418,197.48 C823.125,172.05 1088.81,115.59 1204.21,91.07 " fill="none" style="stroke: #A80036; stroke-width: 1.0; stroke-dasharray: 7.0,7.0;"/><polygon fill="#A80036" points="698.525,198.52,708.1588,200.5669,703.4163,197.4833,706.5,192.7408,698.525,198.52" style="stroke: #A80036; stroke-width: 1.0;"/><text fill="#000000" font-family="sans-serif" font-size="13" lengthAdjust="spacingAndGlyphs" textLength="95" x="801" y="143.3869">&lt;&lt;extends&gt;&gt;</text><path d="M370.244,227.4 C424.79,223.96 504.313,218.94 563.074,215.24 " fill="none" style="stroke: #A80036; stroke-width: 1.0; stroke-dasharray: 7.0,7.0;"/><polygon fill="#A80036" points="568.337,214.9,559.1038,211.4725,563.3468,215.2137,559.6057,219.4567,568.337,214.9" style="stroke: #A80036; stroke-width: 1.0;"/><text fill="#000000" font-family="sans-serif" font-size="13" lengthAdjust="spacingAndGlyphs" textLength="95" x="431" y="213.3869">&lt;&lt;extends&gt;&gt;</text><path d="M1563.75,1107.861 C1587.33,1107.283 1612.05,1106.676 1634.23,1106.132 " fill="none" style="stroke: #A80036; stroke-width: 1.0; stroke-dasharray: 7.0,7.0;"/><polygon fill="#A80036" points="1558.73,1107.985,1567.8191,1111.7782,1563.7287,1107.8707,1567.6362,1103.7803,1558.73,1107.985" style="stroke: #A80036; stroke-width: 1.0;"/><path d="M307,875.007 C307,893.116 307,919.52 307,939.105 " fill="none" style="stroke: #A80036; stroke-width: 1.0; stroke-dasharray: 7.0,7.0;"/><polygon fill="#A80036" points="307,944.182,311,935.182,307,939.182,303,935.182,307,944.182" style="stroke: #A80036; stroke-width: 1.0;"/><text fill="#000000" font-family="sans-serif" font-size="13" lengthAdjust="spacingAndGlyphs" textLength="95" x="248" y="914.1379">&lt;&lt;extends&gt;&gt;</text><path d="M265.518,946.37 C220.033,922.766 156.816,879.896 183.5,833.821 C195.075,813.836 216.039,801.161 237.448,793.13 " fill="none" style="stroke: #A80036; stroke-width: 1.0; stroke-dasharray: 7.0,7.0;"/><polygon fill="#A80036" points="242.31,791.386,232.4881,790.6572,237.6032,793.073,235.1874,798.1881,242.31,791.386" style="stroke: #A80036; stroke-width: 1.0;"/><path d="M368.624,763.255 C380.126,758.043 391.274,751.219 400,742.321 C426.298,715.507 400.741,686.869 430,663.321 C525.478,586.483 674.401,583.582 766.183,590.805 " fill="none" style="stroke: #A80036; stroke-width: 1.0; stroke-dasharray: 7.0,7.0;"/><polygon fill="#A80036" points="364.03,765.246,373.8784,765.3374,368.6177,763.2578,370.6973,757.9971,364.03,765.246" style="stroke: #A80036; stroke-width: 1.0;"/></g></svg>